<?xml version="1.0" encoding="utf-8"?>
<!-- Generator: Adobe Illustrator 25.2.3, SVG Export Plug-In . SVG Version: 6.00 Build 0)  -->
<svg version="1.1" id="Layer_1" xmlns="http://www.w3.org/2000/svg" xmlns:xlink="http://www.w3.org/1999/xlink" x="0px" y="0px"
	 viewBox="0 0 80 80" style="enable-background:new 0 0 80 80;" xml:space="preserve">
<style type="text/css">
	.st0{fill:#FDD632;}
	.st1{fill:#202124;}
	.st2{fill-rule:evenodd;clip-rule:evenodd;fill:#202124;}
</style>
<path class="st0" d="M46.6,14.4l25.5,43.4c2.1,3.6,0.9,8.3-2.7,10.4c-1.2,0.7-2.5,1-3.9,1h-51c-4.2,0-7.6-3.4-7.6-7.6
	c0-1.4,0.4-2.7,1-3.9l25.5-43.4c2.1-3.6,6.8-4.8,10.4-2.7C45,12.4,45.9,13.3,46.6,14.4z"/>
<g>
	<path class="st1" d="M65.5,71.1h-51c-5.2,0-9.4-4.2-9.4-9.4c0-1.7,0.4-3.3,1.3-4.8l25.5-43.4c1.3-2.2,3.3-3.7,5.8-4.3
		c2.4-0.6,5-0.3,7.1,1c1.4,0.8,2.5,2,3.3,3.3l25.5,43.4c2.6,4.5,1.1,10.3-3.3,12.9C68.8,70.7,67.2,71.1,65.5,71.1z M40,12.5
		c-0.5,0-1,0.1-1.5,0.2C37,13.1,35.8,14,35,15.4L9.5,58.8c-0.5,0.9-0.8,1.9-0.8,2.9c0,3.2,2.6,5.8,5.8,5.8h51c1,0,2-0.3,2.9-0.8
		c2.8-1.6,3.7-5.2,2.1-7.9L45,15.4c-0.5-0.8-1.2-1.6-2.1-2.1C42,12.8,41,12.5,40,12.5z"/>
</g>
<path class="st2" d="M36.1,31.6c-0.3-2.5,1.4-4.5,3.9-4.5c2.5,0,4.3,2,3.9,4.5l-1.9,13.6c-0.1,1-1,1.8-2.1,1.8c-1,0-1.9-0.8-2.1-1.8
	L36.1,31.6z M40,59.7c2,0,3.6-1.6,3.6-3.6c0-2-1.6-3.6-3.6-3.6c-2,0-3.6,1.6-3.6,3.6C36.4,58.1,38,59.7,40,59.7z"/>
</svg>
