<svg xmlns="http://www.w3.org/2000/svg" viewBox="0 0 79.91 79.91"><defs><style>.cls-1{fill:#caf8ff;}.cls-2{fill:#59ceff;}.cls-3{fill:#1ee592;}</style></defs><g id="Layer_2" data-name="Layer 2"><g id="Artwork"><circle class="cls-1" cx="39.96" cy="39.96" r="38.46"/><path class="cls-2" d="M58.9,6.49,29,36.42,46.5,61.06l30.7-30.7A38.49,38.49,0,0,0,58.9,6.49Z"/><path d="M57.52,5.75,27.91,35.36A1.5,1.5,0,1,0,30,37.48l30.2-30.2C59.35,6.73,58.44,6.22,57.52,5.75Z"/><path d="M76.74,28.71,45.44,60a1.49,1.49,0,0,0,0,2.12,1.51,1.51,0,0,0,1.06.44,1.49,1.49,0,0,0,1.06-.44l30-30C77.36,30.94,77.07,29.81,76.74,28.71Z"/><path class="cls-3" d="M47.38,18a9.84,9.84,0,0,1-13.91,0L21.62,6.14a38.55,38.55,0,0,0-19,24.55L37.32,65.38,54.45,49.6Z"/><path d="M40.43,22.38a11.22,11.22,0,0,0,8-3.33,1.49,1.49,0,0,0,0-2.12,1.51,1.51,0,0,0-2.12,0,8.35,8.35,0,0,1-11.79,0L23,5.43c-.93.46-1.85,1-2.75,1.49L32.41,19.05A11.24,11.24,0,0,0,40.43,22.38Z"/><path d="M55.55,48.58a1.5,1.5,0,0,0-2.12-.09L37.36,63.3,3.08,29c-.32,1.11-.61,2.24-.84,3.4l34,34a1.47,1.47,0,0,0,1.06.44,1.52,1.52,0,0,0,1-.39L55.46,50.7A1.5,1.5,0,0,0,55.55,48.58Z"/><path d="M40,79.91A40,40,0,1,1,79.91,40,40,40,0,0,1,40,79.91ZM40,3A37,37,0,1,0,76.91,40,37,37,0,0,0,40,3Z"/><path class="cls-3" d="M51.67,47l6,6a3.86,3.86,0,0,1,0,5.46h0a3.86,3.86,0,0,1-5.46,0l-6-6"/><path d="M55,61.15a5.33,5.33,0,0,1-3.79-1.57l-6-6a1.49,1.49,0,0,1,0-2.12,1.51,1.51,0,0,1,2.12,0l6,6a2.36,2.36,0,0,0,3.34-3.33l-6-6a1.51,1.51,0,0,1,0-2.12,1.49,1.49,0,0,1,2.12,0l6.05,6A5.37,5.37,0,0,1,55,61.15Z"/><path class="cls-3" d="M40.52,57.76l2.08,2.07a3.87,3.87,0,0,1,0,5.46h0a3.86,3.86,0,0,1-5.46,0l-2.71-2.71"/><path d="M39.87,67.92a5.39,5.39,0,0,1-3.8-1.57l-2.7-2.71a1.49,1.49,0,0,1,0-2.12,1.51,1.51,0,0,1,2.12,0l2.71,2.71a2.36,2.36,0,1,0,3.33-3.34l-2.07-2.07a1.51,1.51,0,0,1,0-2.12,1.49,1.49,0,0,1,2.12,0l2.08,2.07a5.36,5.36,0,0,1-3.79,9.15Z"/><rect class="cls-2" x="20.63" y="52.26" width="11.78" height="7.72" rx="3.86" transform="translate(-31.92 35.19) rotate(-45)"/><path d="M25.08,62.92a5.36,5.36,0,0,1-3.79-9.15l2.87-2.87a5.36,5.36,0,1,1,7.58,7.58l-2.87,2.87A5.33,5.33,0,0,1,25.08,62.92ZM28,52.33a2.36,2.36,0,0,0-1.67.69l-2.87,2.87a2.37,2.37,0,0,0,0,3.34,2.42,2.42,0,0,0,3.34,0l2.87-2.87a2.36,2.36,0,0,0-1.67-4ZM25.22,52h0Z"/><path class="cls-2" d="M30.15,58,28.88,59.3a3.86,3.86,0,0,0,0,5.46h0a3.86,3.86,0,0,0,5.46,0l1.27-1.28a3.85,3.85,0,0,0,0-5.45h0A3.86,3.86,0,0,0,30.15,58Z"/><path d="M31.6,67.38a5.35,5.35,0,0,1-3.79-9.14L29.09,57a5.33,5.33,0,0,1,3.79-1.57h0A5.3,5.3,0,0,1,36.68,57a5.36,5.36,0,0,1,0,7.57L35.4,65.82A5.38,5.38,0,0,1,31.6,67.38Zm1.28-9a2.38,2.38,0,0,0-1.67.69l-1.27,1.28a2.34,2.34,0,0,0,0,3.34,2.35,2.35,0,0,0,3.33,0l1.28-1.28a2.35,2.35,0,0,0,0-3.33,2.31,2.31,0,0,0-1.67-.7Z"/><rect class="cls-2" x="15.16" y="46.73" width="11.97" height="7.72" rx="3.86" transform="translate(-29.58 29.77) rotate(-45)"/><path d="M19.64,57.45a5.36,5.36,0,0,1-3.79-9.15l3-3a5.36,5.36,0,0,1,7.58,7.58l-3,3A5.3,5.3,0,0,1,19.64,57.45Zm3-10.72a2.35,2.35,0,0,0-1.67.69l-3,3a2.36,2.36,0,1,0,3.34,3.34l3-3a2.36,2.36,0,0,0-1.67-4Zm-2.73-.37h0Z"/><rect class="cls-2" x="11.16" y="39.98" width="11.67" height="7.72" rx="3.86" transform="translate(-26.03 24.86) rotate(-45)"/><path d="M15.6,50.6a5.36,5.36,0,0,1-3.79-9.15l2.79-2.79a5.36,5.36,0,1,1,7.58,7.58L19.39,49A5.33,5.33,0,0,1,15.6,50.6Zm2.79-10.51a2.34,2.34,0,0,0-1.67.69h0l-2.79,2.79a2.36,2.36,0,0,0,3.34,3.34l2.79-2.79a2.37,2.37,0,0,0,0-3.34A2.34,2.34,0,0,0,18.39,40.09Z"/><path class="cls-2" d="M57.65,30.65A8.89,8.89,0,0,1,45.49,31l-.69.6a11.32,11.32,0,0,1-15.8-.2h0a3.67,3.67,0,0,1,.53-5.62,3.78,3.78,0,0,1,4.78.57h0a3.39,3.39,0,0,0,4.77,0l7.7-7.7,4.75-4.76h0"/><path d="M37,36.28a12.77,12.77,0,0,1-9.08-3.79,5.17,5.17,0,0,1,.73-7.91,5.24,5.24,0,0,1,6.7.74,1.93,1.93,0,0,0,2.65,0L50.47,12.86A1.5,1.5,0,0,1,53,13.92,1.52,1.52,0,0,1,52.54,15l-12.4,12.4a4.86,4.86,0,0,1-6.89,0,2.28,2.28,0,0,0-2.87-.4,2.18,2.18,0,0,0-.32,3.33,9.76,9.76,0,0,0,13.71.18c1-.93,1.15-1,1.72-1a1.52,1.52,0,0,1,1,.37,7.41,7.41,0,0,0,10.11-.32,1.5,1.5,0,1,1,2.12,2.13A10.43,10.43,0,0,1,45.56,33,12.72,12.72,0,0,1,37,36.28Z"/><path class="cls-3" d="M46.05,52.29l4.82,4.82a3.86,3.86,0,0,1,0,5.46h0a3.86,3.86,0,0,1-5.46,0l-4.82-4.82"/><path d="M48.14,65.2a5.29,5.29,0,0,1-3.79-1.57l-4.82-4.82a1.5,1.5,0,0,1,2.12-2.12l4.82,4.82a2.4,2.4,0,0,0,3.34,0,2.37,2.37,0,0,0,0-3.34L45,53.35a1.5,1.5,0,1,1,2.12-2.12l4.82,4.82a5.37,5.37,0,0,1,0,7.58A5.29,5.29,0,0,1,48.14,65.2Z"/><path class="cls-3" d="M48.65,33.18,63,47.5A3.86,3.86,0,0,1,63,53h0a3.86,3.86,0,0,1-5.46,0l-6.1-6.1"/><path d="M60.25,55.59A5.34,5.34,0,0,1,56.46,54l-6.1-6.1a1.5,1.5,0,0,1,2.12-2.12l6.1,6.1a2.37,2.37,0,0,0,3.34,0,2.3,2.3,0,0,0,.69-1.67,2.34,2.34,0,0,0-.69-1.67L47.59,34.24a1.51,1.51,0,0,1,0-2.12,1.49,1.49,0,0,1,2.12,0L64,46.44a5.36,5.36,0,0,1-3.79,9.15Z"/></g></g></svg>